<svg width="361" height="103" viewBox="0 0 361 103" fill="none" xmlns="http://www.w3.org/2000/svg">
<path d="M105.16 18.6H111.64V40.704H142.096V18.6H148.576V69H142.096V46.824H111.64V69H105.16V18.6ZM174.07 69.72C170.998 69.72 168.166 69.36 165.574 68.64C162.982 67.872 160.75 66.672 158.878 65.04C157.006 63.408 155.542 61.296 154.486 58.704C153.43 56.064 152.902 52.848 152.902 49.056V18.6H159.382V49.056C159.382 51.888 159.742 54.24 160.462 56.112C161.23 57.984 162.262 59.472 163.558 60.576C164.902 61.68 166.462 62.472 168.238 62.952C170.062 63.384 172.006 63.6 174.07 63.6C176.182 63.6 178.126 63.384 179.902 62.952C181.678 62.472 183.214 61.68 184.51 60.576C185.854 59.472 186.886 57.984 187.606 56.112C188.374 54.24 188.758 51.888 188.758 49.056V18.6H195.238V49.056C195.238 52.848 194.71 56.064 193.654 58.704C192.598 61.296 191.134 63.408 189.262 65.04C187.39 66.672 185.158 67.872 182.566 68.64C179.974 69.36 177.142 69.72 174.07 69.72ZM199.59 18.6H238.902V25.08H206.07V40.704H236.166V46.824H206.07V62.52H238.902V69H199.59V18.6ZM243.254 18.6H249.734V47.904L276.806 18.6H284.726L265.862 38.976L285.374 69H277.67L261.326 43.872L249.734 56.4V69H243.254V18.6ZM289.66 18.6H296.14V69H289.66V18.6ZM325.4 69H318.92V25.08H300.488V18.6H343.832V25.08H325.4V69Z" fill="#E6D0FF"/>
<path d="M105.16 18.6H111.64V40.704H142.096V18.6H148.576V69H142.096V46.824H111.64V69H105.16V18.6ZM174.07 69.72C170.998 69.72 168.166 69.36 165.574 68.64C162.982 67.872 160.75 66.672 158.878 65.04C157.006 63.408 155.542 61.296 154.486 58.704C153.43 56.064 152.902 52.848 152.902 49.056V18.6H159.382V49.056C159.382 51.888 159.742 54.24 160.462 56.112C161.23 57.984 162.262 59.472 163.558 60.576C164.902 61.68 166.462 62.472 168.238 62.952C170.062 63.384 172.006 63.6 174.07 63.6C176.182 63.6 178.126 63.384 179.902 62.952C181.678 62.472 183.214 61.68 184.51 60.576C185.854 59.472 186.886 57.984 187.606 56.112C188.374 54.24 188.758 51.888 188.758 49.056V18.6H195.238V49.056C195.238 52.848 194.71 56.064 193.654 58.704C192.598 61.296 191.134 63.408 189.262 65.04C187.39 66.672 185.158 67.872 182.566 68.64C179.974 69.36 177.142 69.72 174.07 69.72ZM199.59 18.6H238.902V25.08H206.07V40.704H236.166V46.824H206.07V62.52H238.902V69H199.59V18.6ZM243.254 18.6H249.734V47.904L276.806 18.6H284.726L265.862 38.976L285.374 69H277.67L261.326 43.872L249.734 56.4V69H243.254V18.6ZM289.66 18.6H296.14V69H289.66V18.6ZM325.4 69H318.92V25.08H300.488V18.6H343.832V25.08H325.4V69Z" fill="#93791C"/>
<path d="M51.5 0L96.1003 77.25H6.89969L51.5 0Z" fill="url(#paint0_linear_101_209)"/>
<defs>
<linearGradient id="paint0_linear_101_209" x1="103" y1="11.9027" x2="5.07506e-06" y2="91.0973" gradientUnits="userSpaceOnUse">
<stop stop-color="#EAF259"/>
<stop offset="0.5" stop-color="#793F2C"/>
<stop offset="1"/>
</linearGradient>
</defs>
</svg>
